# xmcd
#
# Track frame offsets:
#	150
#	18950
#	32162
#	48600
#	67762
#	83100
#	96100
#	111862
#	127412
#	141287
#	155775
#	168775
#	183212
#	200375
#	217350
#	230875
#
# Disc length: 3247 seconds
#
# Revision: 0
# Processed by: cddbd v1.5.1PL0 Copyright (c) Steve Scherf et al.
# Submitted via: EasyCDDAExtractor 4.6.9.1
#
DISCID=ea0cad10
DTITLE=Various Artist - Country Line Dance Party
DYEAR=1900
DGENRE=Country
TTITLE0=Neon Moon
TTITLE1=Indian Outlaw
TTITLE2=Slow Dancin'
TTITLE3=Earthquake
TTITLE4=Achy Breaky Heart
TTITLE5=A Little Less Talk and A Lot More Action
TTITLE6=Fast As You
TTITLE7=Do You Wanna' Dance
TTITLE8=Boot Scootin' Boogie
TTITLE9=Chattahoochie
TTITLE10=If Bubba Can Dance (I Can Too)
TTITLE11=Get Into Reggae Cowboy
TTITLE12=Ain't Goin'  Down (Til' The Sun Comes Up)
TTITLE13=Bop
TTITLE14=One More Last Dance
TTITLE15=If The Devil Danced (In Empty Pockets)
EXTD=
EXTT0=
EXTT1=
EXTT2=
EXTT3=
EXTT4=
EXTT5=
EXTT6=
EXTT7=
EXTT8=
EXTT9=
EXTT10=
EXTT11=
EXTT12=
EXTT13=
EXTT14=
EXTT15=
PLAYORDER=
